<svg width="130" height="130" viewBox="0 0 130 130" fill="none" xmlns="http://www.w3.org/2000/svg">
<g clip-path="url(#clip0_651_60)">
<path d="M116.29 36.9687C120.84 45.2942 123.43 54.8438 123.43 65C123.43 86.5529 111.751 105.387 94.38 115.51L112.228 63.9058C115.559 55.5642 116.67 48.8962 116.67 42.9758C116.67 40.7821 116.529 38.7562 116.29 36.9687ZM73.06 37.5321C76.5646 37.3696 79.7333 36.9633 79.7333 36.9633C82.8858 36.5571 82.5175 31.9258 79.3704 32.0938C79.3704 32.0938 69.8642 32.825 63.7704 32.825C58.0071 32.825 48.3329 32.0125 48.3329 32.0125C45.1642 31.85 44.7525 36.6437 47.9267 36.8062C47.9267 36.8062 50.8517 37.1367 54.0204 37.2938L63.1204 62.2375L50.2829 100.587L29.0008 37.375C32.5163 37.2125 35.685 36.8333 35.685 36.8333C38.8537 36.4271 38.48 31.7958 35.3329 31.98C35.3329 31.98 25.8754 32.7275 19.7654 32.7275C18.6821 32.7275 17.3929 32.6842 16.0279 32.6462C26.6012 17.0625 44.6062 6.58125 65 6.58125C80.2154 6.58125 94.0604 12.3879 104.466 21.9267C104.217 21.9104 103.973 21.8779 103.702 21.8779C97.9604 21.8779 93.8871 26.8775 93.8871 32.2454C93.8871 37.0662 96.6658 41.145 99.6287 45.955C101.855 49.855 104.45 54.8546 104.45 62.0804C104.45 67.0367 102.532 72.8812 100.002 80.925L94.1796 100.344L73.0546 37.4562L73.06 37.5321ZM65 123.413C59.2637 123.413 53.7279 122.585 48.49 121.046L66.0238 70.0971L83.98 119.318C84.11 119.605 84.2508 119.865 84.4025 120.125C78.3358 122.254 71.8087 123.424 65 123.424M6.55958 65C6.55958 56.5283 8.37958 48.4792 11.6242 41.2208L39.4875 117.59C20.0092 108.117 6.565 88.1346 6.55958 65ZM65 0C29.1688 0 0 29.1688 0 65C0 100.831 29.1688 130 65 130C100.831 130 130 100.831 130 65C130 29.1688 100.831 0 65 0Z" fill="white"/>
</g>
<defs>
<clipPath id="clip0_651_60">
<rect width="130" height="130" fill="white"/>
</clipPath>
</defs>
</svg>
